<svg xmlns="http://www.w3.org/2000/svg" width="24" height="24">
    <path fill-rule="evenodd" fill="#777" d="M11.406 5.999H5v13h12v-5.343l2-1.968v8.311a1 1 0 0 1-1.001 1h-14a1 1 0 0 1-1-1v-15a1 1 0 0 1 1-1H13.5l-2.094 2z"/>
    <path fill-rule="evenodd" fill="#777" d="M22.227 6.067c-.052.052-.113.09-.168.137l-9.658 9.895h-4.5v-4.5l10.047-9.872.019.019a3.033 3.033 0 0 1 4.26 4.321zM9.701 14.299h1.8l7.155-7.053-1.902-1.887-7.053 7.14v1.8zM20.897 3.08c-.484-.484-1.234-.502-1.764-.097l-.016-.016-.078.079c-.016.014-.036.019-.052.034-.016.016-.021.038-.037.055l-.982.995 1.911 1.911 1.13-1.113-.043-.044a1.336 1.336 0 0 0-.069-1.804z"/>
</svg>
