<svg xmlns="http://www.w3.org/2000/svg" width="24" height="24">
    <defs>
        <filter id="a">
            <feFlood flood-color="#A50034" flood-opacity="1" result="floodOut"/>
            <feComposite operator="atop" in="floodOut" in2="SourceGraphic" result="compOut"/>
            <feBlend in="compOut" in2="SourceGraphic"/>
        </filter>
    </defs>
    <g filter="url(#a)">
        <path fill-rule="evenodd" fill="#094" d="m1.999 22.152.092-1.15c.323-4.031 3.936-5.808 5.801-6.185a1.065 1.065 0 0 1 .421 2.087c-.146.031-2.984.66-3.866 3.119h15.257c-.325-.909-.954-1.667-1.88-2.264a6.666 6.666 0 0 0-1.985-.855 1.064 1.064 0 0 1 .418-2.087c1.865.377 5.479 2.154 5.801 6.185l.092 1.15H1.999zm10.076-6.863c-2.698 0-5.336-3.777-5.336-6.595 0-1.494.479-3.112 1.282-4.329C9.027 2.84 10.467 2 12.075 2c1.607 0 3.047.84 4.053 2.365.803 1.217 1.283 2.835 1.283 4.329 0 2.818-2.638 6.595-5.336 6.595zm0-11.16c-2.071 0-3.217 2.699-3.217 4.565 0 .918.459 2.082 1.197 3.038.761.986 1.563 1.427 2.02 1.427 1.222 0 3.216-2.494 3.216-4.465 0-1.866-1.145-4.565-3.216-4.565z"/>
    </g>
</svg>
